<svg width="39" height="38" viewBox="0 0 39 38" fill="none" xmlns="http://www.w3.org/2000/svg">
<path d="M27.8333 2.3335H11.1666C6.56427 2.3335 2.83331 6.06446 2.83331 10.6668V27.3335C2.83331 31.9359 6.56427 35.6668 11.1666 35.6668H27.8333C32.4357 35.6668 36.1666 31.9359 36.1666 27.3335V10.6668C36.1666 6.06446 32.4357 2.3335 27.8333 2.3335Z" stroke="black" stroke-width="4" stroke-linecap="round" stroke-linejoin="round"/>
<path d="M26.1667 17.95C26.3724 19.3371 26.1355 20.7537 25.4896 21.9984C24.8438 23.243 23.8219 24.2524 22.5694 24.8828C21.3169 25.5132 19.8974 25.7327 18.513 25.5099C17.1286 25.2871 15.8496 24.6335 14.8581 23.6419C13.8665 22.6504 13.2129 21.3715 12.9901 19.987C12.7674 18.6026 12.9868 17.1832 13.6172 15.9306C14.2477 14.6781 15.257 13.6562 16.5017 13.0104C17.7463 12.3646 19.1629 12.1277 20.55 12.3333C21.9649 12.5432 23.2748 13.2025 24.2862 14.2139C25.2976 15.2253 25.9569 16.5351 26.1667 17.95Z" stroke="black" stroke-width="4" stroke-linecap="round" stroke-linejoin="round"/>
<path d="M28.6667 9.8335H28.6834" stroke="black" stroke-width="4" stroke-linecap="round" stroke-linejoin="round"/>
</svg>
